<svg id="svg" version="1.1" xmlns="http://www.w3.org/2000/svg" xmlns:xlink="http://www.w3.org/1999/xlink" width="400" height="400" viewBox="0, 0, 400,400"><g id="svgg"><path id="path0" d="M174.609 1.220 C 10.596 23.447,-58.482 221.611,56.608 339.734 C 173.527 459.736,377.004 391.371,398.794 224.765 C 415.588 96.361,302.757 -16.147,174.609 1.220 M103.433 147.861 C 104.379 149.049,114.101 167.060,125.037 187.887 C 135.974 208.714,145.157 225.760,145.445 225.768 C 145.733 225.775,154.856 208.818,165.719 188.086 C 177.633 165.346,186.473 149.371,187.999 147.822 L 190.529 145.253 197.803 145.478 L 205.078 145.703 205.078 200.000 L 205.078 254.297 198.265 254.522 C 189.700 254.806,190.529 259.622,190.796 211.133 C 190.917 189.111,190.784 171.093,190.502 171.094 C 190.219 171.094,182.152 185.947,172.574 204.102 C 152.468 242.215,153.059 241.406,145.313 241.406 C 137.619 241.406,138.342 242.403,117.969 203.751 L 100.391 170.402 100.000 212.349 L 99.609 254.297 93.036 254.526 C 88.304 254.691,86.282 254.472,85.821 253.745 C 85.080 252.577,84.932 149.746,85.667 147.001 C 86.471 143.998,100.912 144.698,103.433 147.861 M314.844 150.781 L 314.844 156.250 282.813 156.250 L 250.781 156.250 250.781 176.563 L 250.781 196.875 277.329 196.875 L 303.876 196.875 304.333 198.695 C 304.585 199.697,304.679 202.070,304.544 203.969 L 304.297 207.422 277.551 207.627 L 250.804 207.833 250.598 231.065 L 250.391 254.297 243.555 254.523 L 236.719 254.748 236.719 200.030 L 236.719 145.313 275.781 145.313 L 314.844 145.313 314.844 150.781 " stroke="none" fill="#000000" fill-rule="evenodd"></path></g></svg>